<?xml version="1.0" encoding="UTF-8" standalone="no"?>
<!-- Created with Inkscape (http://www.inkscape.org/) -->

<svg
   xmlns:dc="http://purl.org/dc/elements/1.1/"
   xmlns:cc="http://creativecommons.org/ns#"
   xmlns:rdf="http://www.w3.org/1999/02/22-rdf-syntax-ns#"
   xmlns:svg="http://www.w3.org/2000/svg"
   xmlns="http://www.w3.org/2000/svg"
   xmlns:sodipodi="http://sodipodi.sourceforge.net/DTD/sodipodi-0.dtd"
   xmlns:inkscape="http://www.inkscape.org/namespaces/inkscape"
   width="699.78223"
   height="171.72256"
   viewBox="0 0 185.15072 45.434927"
   version="1.1"
   id="svg945"
   inkscape:version="0.92.4 (5da689c313, 2019-01-14)"
   sodipodi:docname="logo_placeholder_1.svg">
  <defs
     id="defs939" />
  <sodipodi:namedview
     id="base"
     pagecolor="#ffffff"
     bordercolor="#666666"
     borderopacity="1.0"
     inkscape:pageopacity="0.0"
     inkscape:pageshadow="2"
     inkscape:zoom="1.5390621"
     inkscape:cx="300.63133"
     inkscape:cy="43.032814"
     inkscape:document-units="px"
     inkscape:current-layer="layer1"
     showgrid="false"
     units="px"
     fit-margin-top="5"
     fit-margin-left="5"
     fit-margin-right="5"
     fit-margin-bottom="5"
     inkscape:window-width="1920"
     inkscape:window-height="1001"
     inkscape:window-x="-9"
     inkscape:window-y="-9"
     inkscape:window-maximized="1" />
  <metadata
     id="metadata942">
    <rdf:RDF>
      <cc:Work
         rdf:about="">
        <dc:format>image/svg+xml</dc:format>
        <dc:type
           rdf:resource="http://purl.org/dc/dcmitype/StillImage" />
        <dc:title></dc:title>
      </cc:Work>
    </rdf:RDF>
  </metadata>
  <g
     inkscape:label="Layer 1"
     inkscape:groupmode="layer"
     id="layer1"
     transform="translate(-12.452636,-117.22681)">
    <path
       style="font-style:normal;font-variant:normal;font-weight:normal;font-stretch:normal;font-size:4.93888855px;line-height:1.25;font-family:'Futura Md BT';-inkscape-font-specification:'Futura Md BT';letter-spacing:0px;word-spacing:0px;fill:#ffffff;fill-opacity:1;stroke:none;stroke-width:2.03274941"
       d="m 84.765045,118.55595 -3.338952,0.0692 c -0.299784,0.24355 -0.53649,0.54779 -0.559771,1.04418 v 0.97265 c -0.02535,0.78902 -0.538258,0.98908 -1.111644,1.11562 l -4.033748,-0.13906 c -0.971494,0.10141 -0.856014,0.44944 -0.905206,0.76213 v 0.97672 l -12.3831,-1.32206 c -3.437345,-0.19053 -7.06474,0.023 -10.016847,0.69453 l -0.698752,0.48863 -0.972717,0.27812 -1.250603,-1.04418 c -0.737706,0.008 -1.448599,0.0307 -1.671471,0.41718 -0.786244,1.08612 -0.838525,2.24323 -0.766209,3.41041 0.174019,1.49738 0.548095,2.63045 1.115634,3.40641 0.410646,0.46635 0.689994,0.54472 0.972693,0.62692 1.130781,-1.25937 1.909543,-1.28856 3.132505,-1.32206 l 9.877888,0.20667 c 1.716958,-0.44561 3.23823,-0.60618 5.427276,-1.73893 l 6.955822,0.13906 0.400966,1.20297 h 14.328484 v 3.74393 H 78.539785 v 6.76128 h 10.727508 v 3.87099 H 78.539785 v 1.71512 l 3.370704,-0.0384 c 0.230101,1.04717 0.567455,1.87984 0.555853,3.41041 1.008832,1.34004 2.209313,0.71451 3.410402,0.0691 l -0.07145,3.96618 c -0.08881,1.36186 0.732559,1.28634 1.393552,1.46105 2.703558,0.0154 5.222113,-0.1091 7.606911,-0.441 -0.682006,-0.77466 -1.257395,-1.60448 -1.647621,-2.52504 -0.481716,-1.13636 -0.722572,-2.34418 -0.722572,-3.62875 0,-1.28457 0.240856,-2.49639 0.722572,-3.63275 0.494083,-1.14874 1.198121,-2.16779 2.112148,-3.05708 0.901689,-0.87699 1.939223,-1.55147 3.112645,-2.02081 1.173435,-0.46943 2.403751,-0.70298 3.688321,-0.70298 1.32165,0 2.56299,0.23355 3.72406,0.70298 1.17342,0.46942 2.222,1.16233 3.14838,2.07643 0.46681,0.45406 0.87689,0.93915 1.23077,1.45306 l 0.39705,0.023 c 1.71334,0.0768 3.02192,-0.0615 4.1052,-0.21051 0.44468,-0.0953 0.91524,-0.15212 1.36576,-0.23817 v -3.22779 h 4.01785 v 2.55285 c 0.0484,-0.006 0.0987,-0.008 0.1469,-0.0154 0.41395,-0.99355 0.92531,-1.77758 1.56029,-2.27888 0.71643,-0.55624 1.59823,-0.83375 2.64813,-0.83375 0.56815,0 1.12401,0.0691 1.66748,0.20283 0.55586,0.13599 1.10064,0.33651 1.63178,0.59542 l -0.70675,1.66748 c 1.42723,-0.0945 2.85947,-0.18208 4.31165,-0.23817 1.40582,-1.46119 3.16675,-2.22725 5.32405,-2.22725 1.43282,0 2.65564,0.30424 3.66848,0.90919 0.52443,0.30347 0.97487,0.67762 1.35385,1.11962 0.29694,-0.002 0.59227,-0.006 0.88933,-0.008 V 138.359 h 4.01785 v 1.36578 c 1.86045,-0.0154 3.71402,-0.0461 5.55832,-0.0876 v -1.27843 h 3.77962 v 1.14743 c 0.52397,-0.023 1.05493,-0.0307 1.57621,-0.0615 0.39874,-0.33881 0.81185,-0.63691 1.25853,-0.86555 0.32882,-0.16825 0.68838,-0.30347 1.06007,-0.42102 0.28965,-0.21051 0.79602,-0.557 1.064,-0.75445 l 14.5151,-0.32191 v -2.89828 c -1.16226,-0.14213 -2.35202,-0.13906 -3.31115,-1.44114 l -0.62769,-1.31815 c -0.17593,-0.39643 -0.32729,-0.50168 -0.48402,-0.62691 l -11.7598,0.34572 -1.11163,-0.55547 c -0.46404,-0.22894 -0.92578,-0.31653 -1.38959,-0.34957 l -48.35324,-0.34523 c -0.48402,0.0461 -0.88224,0.33036 -1.0402,1.32206 l -0.21043,0.76214 -11.616859,-0.0691 c -0.568455,-0.0538 -0.75192,-0.37416 -0.837713,-0.76598 -0.252844,-2.05232 1.314754,-1.9801 3.48189,-2.29479 2.397322,-0.0853 5.065522,0.10218 6.955802,-0.48863 0.23663,-0.10218 0.53588,-0.16057 0.55585,-0.41717 l -0.0714,-5.14543 c -0.0307,-0.38337 -0.20305,-0.64228 -0.6233,-0.69913 l -2.01688,-0.0691 c -0.18592,0.12599 -0.35456,0.21665 -0.69875,0.62691 l -10.711634,0.13906 -0.627303,-0.90519 h -4.315624 c -0.487707,-0.14596 -0.61163,-0.67762 -0.762291,-1.18315 l -0.420865,-1.46097 c -0.174787,-0.50322 -0.405117,-0.53703 -0.623311,-0.69452 z m 90.620165,15.63073 c 0.0538,0.007 0.1114,0.0154 0.16672,0.023 l 3.85501,-0.0791 v -2.41787 h -4.02181 z m 4.02181,-0.0615 v 2.86654 l 15.69026,-0.34957 c 0.72834,-0.0538 1.11048,-0.40719 1.18316,-1.04417 l -0.0461,-1.17117 c 0,-0.023 -0.36493,-0.69837 -1.13552,-0.7782 -0.33651,-0.30731 -0.6323,-0.6976 -0.69453,-1.60002 l -0.0691,-4.24415 c -0.27966,-0.4241 -0.60234,-0.77659 -1.11163,-0.83375 l -2.22733,-0.0692 c -0.35649,0.0768 -0.4748,0.79057 -0.55624,1.59995 l -0.34573,4.24423 c -0.14904,0.50169 -0.24508,1.03519 -0.97664,1.17909 z m 0,2.86654 -4.02181,0.0914 v 1.27443 h -3.07698 v 3.52158 h 3.07698 v 14.04268 h 4.02181 v -14.04268 h 3.0729 v -3.51982 h -3.0729 z m -19.60098,1.16718 c -0.48633,0.35418 -0.82345,0.61923 -1.78657,1.26651 -0.17594,0.008 -0.35648,0.008 -0.53165,0.023 -0.5716,0.48556 -1.10326,1.06961 -1.57621,1.78257 v -1.72303 c -1.25525,0.0538 -2.51058,0.10142 -3.7796,0.13061 v 16.28584 h 4.02184 v -8.00397 c 0,-1.44515 0.0538,-2.4937 0.16672,-3.14835 0.12369,-0.66687 0.33497,-1.21182 0.63152,-1.63176 0.42025,-0.62999 0.99432,-1.11916 1.72303,-1.46504 0.7414,-0.34573 1.57836,-0.51629 2.51713,-0.51629 1.43285,0 2.42977,0.38184 2.98563,1.14744 0.56776,0.75368 0.84956,2.28372 0.84956,4.59349 v 9.02433 h 4.05761 v -10.6521 c 0,-1.60571 -0.0691,-2.7324 -0.20205,-3.37468 -0.13599,-0.64229 -0.35802,-1.20167 -0.66687,-1.68339 -0.5186,-0.81522 -1.24132,-1.42662 -2.16772,-1.8342 -0.91402,-0.42025 -2.02573,-0.63153 -3.33504,-0.63153 -1.08543,0 -2.04901,0.14291 -2.90618,0.41257 z m -13.23271,1.5643 c -1.34041,0.0154 -2.67587,0.0307 -4.01785,0.0461 v 1.46104 c -0.22926,-0.54932 -0.52743,-1.0308 -0.88933,-1.45305 -3.47319,0.0307 -6.93982,0.0691 -10.34638,0.19821 -0.12354,0.12831 -0.26345,0.22588 -0.38115,0.36571 -1.4575,1.71688 -2.18758,3.97725 -2.18758,6.78109 0,2.95206 0.71158,5.28302 2.13201,6.98762 1.4328,1.69214 3.38924,2.53695 5.87194,2.53695 1.23518,0 2.32831,-0.24817 3.2794,-0.74216 0.96343,-0.49401 1.80469,-1.24616 2.52109,-2.25906 v 2.27896 h 4.01785 z m -19.56521,0.48863 c -2.30823,0.15289 -4.5843,0.35264 -6.80097,0.64689 -0.0453,0.10833 -0.10449,0.18362 -0.1469,0.2981 v -0.28196 c -1.36609,0.18362 -2.69687,0.42178 -4.01785,0.67532 v 14.3722 h 4.01785 v -7.7062 c 0,-2.51973 0.29295,-4.31344 0.87345,-5.37567 0.58052,-1.0746 1.53648,-1.61194 2.87046,-1.61194 0.49409,0 0.93873,0.0615 1.334,0.1867 0.40757,0.1114 0.78566,0.28887 1.13151,0.53626 z m -16.83371,1.76674 -6.32455,-0.30962 c 0.78228,0.27505 1.49307,0.72373 2.11215,1.39359 1.04991,1.124 1.57617,2.50253 1.57619,4.13298 -2e-5,1.63044 -0.5338,3.01252 -1.59604,4.14889 -1.04989,1.124 -2.3283,1.68729 -3.83522,1.68729 -0.97625,0 -1.84661,-0.26274 -2.636227,-0.73447 -1.485355,0.47173 -3.046116,0.79141 -4.665003,1.01636 0.159879,0.18132 0.288567,0.378 0.464505,0.55163 0.914024,0.90174 1.959083,1.58719 3.132489,2.05662 1.173419,0.48171 2.396246,0.72219 3.668476,0.72219 1.29694,0 2.53079,-0.24125 3.70422,-0.72219 1.1734,-0.46943 2.24448,-1.16595 3.20792,-2.09235 0.91405,-0.87691 1.60309,-1.88498 2.07245,-3.02134 0.48172,-1.13637 0.72257,-2.35164 0.72257,-3.64858 0,-1.24754 -0.24085,-2.44084 -0.72257,-3.57721 -0.23901,-0.56392 -0.53295,-1.09787 -0.88138,-1.60394 z m -10.703697,10.31859 c 0.292791,-0.093 0.589577,-0.17748 0.877427,-0.28196 0.96934,-0.22358 1.19934,-0.62924 1.17914,-0.97265 l -0.13898,-7.79354 c 0.0154,-1.191 0.7609,-1.65443 2.02083,-1.60003 l 0.44069,0.023 c -0.5444,-0.1913 -1.11952,-0.30962 -1.74292,-0.30962 -1.50692,0 -2.788849,0.56699 -3.851098,1.70328 -1.049898,1.124 -1.576173,2.50253 -1.576173,4.13298 0,1.63045 0.526275,3.01252 1.576173,4.14888 0.374076,0.39567 0.785654,0.69607 1.214872,0.95283 z m -20.93096,-7.40841 -2.822818,0.0307 0.138983,2.92208 c -0.112477,0.80479 -0.304088,2.08567 -1.723083,2.70775 v 5.37167 h 4.406942 z m -4.406942,5.66155 v -21.72505 l -1.683361,-0.0461 -0.766286,0.83774 0.138983,2.1558 -1.179164,0.69453 -10.993511,-0.13906 c -1.538857,0.24278 -2.375977,0.9413 -2.850608,1.87791 l -0.976672,2.57668 c -0.355561,0.67302 -0.707819,1.34688 -1.877915,1.25061 l -15.348848,0.30194 v 13.64162 h 9.858043 v 2.79902 c 0.505298,-0.0384 0.982834,-0.0876 1.524566,-0.11524 l 1.111644,1.94537 c 2.421906,1.23379 4.810038,2.56253 7.932502,1.94936 0.841502,-0.21665 1.444818,-0.56238 1.671447,-1.11162 l 0.15089,-1.18316 c -0.737013,0.252 -1.544019,0.38491 -2.425798,0.38491 -2.482702,0 -4.439142,-0.8448 -5.871946,-2.53695 -1.420447,-1.70459 -2.132007,-4.03556 -2.132007,-6.98761 0,-2.80385 0.730099,-5.06422 2.187578,-6.7811 1.457526,-1.72925 3.358366,-2.59257 5.705202,-2.59257 1.432819,0 2.655641,0.30424 3.668477,0.90919 1.025197,0.59311 1.77382,1.44867 2.24318,2.57267 v -2.86985 h 4.021817 v 12.79598 c 0.127458,0.023 0.255069,0.0384 0.381143,0.0307 1.977134,-0.0538 3.019547,0.002 4.871464,-0.41717 0.239474,-0.0538 0.447524,-0.13061 0.639212,-0.21435 z m -5.891803,0.60311 c -1.040886,-0.17589 -2.096661,-1.30089 -2.679895,-2.75526 l -1.250604,0.27813 c -0.05609,0.0154 -0.09219,0.0307 -0.146896,0.0461 -0.201444,1.05132 -0.588582,1.96082 -1.202963,2.69975 -0.476795,0.58082 -1.03483,0.99654 -1.663517,1.27043 l -0.452597,3.56922 c 0.295408,-0.10065 0.581515,-0.21589 0.853594,-0.35725 0.963443,-0.49401 1.804691,-1.24616 2.52109,-2.25906 v 2.27895 h 4.021818 z m -6.943891,1.53648 0.369236,-2.90218 c 0.701906,-0.66303 1.463927,-0.77135 2.497252,-1.06799 0.09826,-0.51321 0.166796,-1.04855 0.166796,-1.63575 0,-1.81569 -0.426167,-3.23132 -1.278425,-4.24415 -0.839925,-1.01283 -2.018188,-1.51659 -3.537444,-1.51659 -1.51928,0 -2.720047,0.52243 -3.597035,1.57214 -0.86461,1.03756 -1.294296,2.4827 -1.294296,4.33549 0,1.86509 0.418639,3.30677 1.25858,4.3196 0.839909,1.01283 2.025679,1.51659 3.557313,1.51659 0.681082,0 1.297707,-0.13291 1.858055,-0.37722 z m -12.843645,2.08436 c -1.30002,0.10142 -2.516444,0.22972 -3.485864,0.44099 l -3.287313,0.70683 h 6.773177 z m -6.773177,1.14744 H 34.18453 v -17.50073 l -18.989543,0.37723 c -0.788812,0.12907 -1.572945,0.25584 -1.393551,2.36231 l 1.810429,18.78707 c 0.197526,1.16779 0.675398,1.65626 1.528522,1.25061 z m -7.495765,-17.50073 4.410899,-0.0876 v -9.53648 H 34.18453 Z m 39.948281,-9.59601 0.821841,0.023 -0.01614,-0.0538 h -0.805966 z m 63.713989,12.49828 c 1.51927,0 2.7015,0.50399 3.54143,1.51659 0.85228,1.01283 1.2784,2.42846 1.2784,4.24415 0,1.79102 -0.45966,3.23616 -1.37369,4.3355 -0.90167,1.09926 -2.07245,1.64758 -3.51759,1.64758 -1.53163,0 -2.7174,-0.50399 -3.55731,-1.51659 -0.83994,-1.01283 -1.26255,-2.45451 -1.26255,-4.3196 0,-1.85279 0.43362,-3.29793 1.29826,-4.33549 0.87699,-1.04986 2.07379,-1.57214 3.59305,-1.57214 z"
       id="text817-7"
       inkscape:connector-curvature="0" />
  </g>
</svg>
